<svg width="17" height="16" fill="none" xmlns="http://www.w3.org/2000/svg"><g clip-path="url(#clip0)"><path fill-rule="evenodd" clip-rule="evenodd" d="M17 7.795c0 3.846-3.813 6.974-8.5 6.974a10.01 10.01 0 01-3.469-.607C3.103 15.178.437 15.527.323 15.543a.287.287 0 01-.293-.14.241.241 0 01.053-.299c.652-.594 1.1-1.847 1.268-3.535C.466 10.442 0 9.14 0 7.795 0 3.95 3.813.822 8.5.822c4.687 0 8.5 3.128 8.5 6.973zm-11.333 0c0-.57-.509-1.033-1.134-1.033-.625 0-1.133.464-1.133 1.033 0 .57.508 1.034 1.133 1.034s1.134-.464 1.134-1.034zm3.966 0c0-.57-.508-1.033-1.133-1.033s-1.133.464-1.133 1.033c0 .57.508 1.034 1.133 1.034s1.133-.464 1.133-1.034zm3.967 0c0-.57-.508-1.033-1.133-1.033s-1.134.464-1.134 1.033c0 .57.509 1.034 1.134 1.034.625 0 1.133-.464 1.133-1.034z" fill="#D3D3D3"/></g><defs><clipPath id="clip0"><path fill="#fff" transform="matrix(-1 0 0 1 17 .822)" d="M0 0h17v14.981H0z"/></clipPath></defs></svg>