<svg width="16" height="16" fill="none" xmlns="http://www.w3.org/2000/svg"><g clip-path="url(#clip0)"><path fill-rule="evenodd" clip-rule="evenodd" d="M8 .038c-4.411 0-8 3.36-8 7.49 0 4.13 3.589 7.491 8 7.491 4.41 0 8-3.36 8-7.49 0-4.13-3.588-7.49-8-7.49zm1.99 7.754H8.688v4.344H6.759V7.792h-.916V6.257h.916v-.993c0-.711.361-1.822 1.947-1.822l1.429.005v1.49H9.098c-.17 0-.41.08-.41.418v.902h1.47L9.99 7.792z" fill="#D3D3D3"/></g><defs><clipPath id="clip0"><path fill="#fff" transform="translate(0 .038)" d="M0 0h16v14.981H0z"/></clipPath></defs></svg>