<svg width="16" height="16" fill="none" xmlns="http://www.w3.org/2000/svg"><g clip-path="url(#clip0)" fill-rule="evenodd" clip-rule="evenodd" fill="#D3D3D3"><path d="M7.944 9.246c.876 0 1.59-.668 1.59-1.49 0-.324-.112-.623-.3-.867a1.624 1.624 0 00-1.29-.621c-.53 0-1 .245-1.29.62a1.42 1.42 0 00-.3.868c-.001.822.713 1.49 1.59 1.49zm3.473-3.311V4.5h-.2l-1.332.004.005 1.435 1.527-.005z"/><path d="M7.944.318C3.564.318 0 3.655 0 7.757c0 4.1 3.564 7.438 7.944 7.438s7.945-3.337 7.945-7.438c0-4.102-3.564-7.439-7.945-7.439zm4.518 6.57v3.464c0 .902-.783 1.636-1.746 1.636H5.172c-.963 0-1.746-.734-1.746-1.636v-5.19c0-.902.783-1.635 1.746-1.635h5.544c.963 0 1.746.733 1.746 1.635v1.727z"/><path d="M10.416 7.757c0 1.275-1.109 2.314-2.472 2.314s-2.47-1.039-2.47-2.314c0-.307.064-.6.181-.868H4.306v3.463c0 .448.388.81.866.81h5.543c.478 0 .866-.362.866-.81V6.89h-1.35c.118.268.185.56.185.868z"/></g><defs><clipPath id="clip0"><path fill="#fff" transform="translate(0 .318)" d="M0 0h16v14.981H0z"/></clipPath></defs></svg>