<svg width="16" height="16" fill="none" xmlns="http://www.w3.org/2000/svg"><g clip-path="url(#clip0)" fill-rule="evenodd" clip-rule="evenodd" fill="#D3D3D3"><path d="M6.525 9.707l3.583-1.739-3.583-1.75v3.49z"/><path d="M7.98.599C3.573.599 0 3.944 0 8.07c0 4.126 3.573 7.471 7.98 7.471 4.406 0 7.98-3.345 7.98-7.471 0-4.126-3.574-7.471-7.98-7.471zm5.436 9.965a1.393 1.393 0 01-1.218 1.036c-1.397.147-2.81.147-4.219.147-1.408 0-2.822 0-4.22-.147a1.392 1.392 0 01-1.217-1.036c-.196-.8-.196-1.671-.196-2.494 0-.823.002-1.695.198-2.494A1.392 1.392 0 013.762 4.54c1.397-.146 2.811-.147 4.22-.146 1.407 0 2.822 0 4.218.146.59.062 1.08.476 1.219 1.037.196.8.194 1.671.194 2.494 0 .823 0 1.695-.197 2.494z"/></g><defs><clipPath id="clip0"><path fill="#fff" transform="translate(0 .599)" d="M0 0h16v14.981H0z"/></clipPath></defs></svg>