<svg width="80" height="76" fill="none" xmlns="http://www.w3.org/2000/svg"><path fill-rule="evenodd" clip-rule="evenodd" d="M74.483.038H5.379C2.345.038 0 2.384 0 5.42v11.182c0 1.933.828 3.865 2.207 5.108.599.48 1.25.88 1.931 1.181v51.69c0 .828.552 1.38 1.38 1.38h68.965c.828 0 1.38-.552 1.38-1.38V22.896C78.28 21.733 80 19.16 80 16.327V5.421C80 2.384 77.655.038 74.483.038zM57.93 2.798h8.138v13.805c0 .277.022.554.06.83-.367 1.927-2 3.312-4.06 3.312-2.345 0-4.138-1.795-4.138-4.142V2.8zm-11.034 0h8.276v13.805c0 2.347-1.794 4.142-4.139 4.142-2.344 0-4.137-1.795-4.137-4.142V2.8zm-11.035 0h8.276v13.805c0 2.347-1.793 4.142-4.138 4.142-2.345 0-4.138-1.795-4.138-4.142V2.8zm-11.034 0h8.276v13.805c0 2.347-1.793 4.142-4.138 4.142-2.345 0-4.138-1.795-4.138-4.142V2.8zm-11.035 0h8.276v13.805c0 2.347-1.793 4.142-4.138 4.142-2.345 0-4.138-1.795-4.138-4.142V2.8zM2.76 16.604V5.421c0-1.518 1.103-2.622 2.62-2.622h5.655v13.528c0 2.064-1.446 3.887-3.324 4.342a4.392 4.392 0 01-.63.071c-1.043-.037-2.172-.329-2.942-1.1-.828-.69-1.38-1.933-1.38-3.037zm4.827 6.902a6.527 6.527 0 001.578-.395 6.99 6.99 0 003.233-2.344c1.248 1.673 3.246 2.74 5.534 2.74 2.278 0 4.268-1.058 5.517-2.719 1.25 1.66 3.24 2.718 5.517 2.718 2.279 0 4.268-1.057 5.518-2.718 1.249 1.66 3.239 2.718 5.517 2.718 2.278 0 4.268-1.057 5.517-2.718 1.25 1.66 3.239 2.718 5.517 2.718 2.279 0 4.268-1.057 5.517-2.718 1.25 1.66 3.24 2.718 5.518 2.718 2.271 0 4.256-1.051 5.506-2.703.256.33.537.637.838.909.221.177.45.342.684.496a7.002 7.002 0 003.376 1.265l.03.003a6.875 6.875 0 00.6.03v5.522H6.897v-5.522h.69zm6.207 49.696V37.31h16.552v19.326h-2.759c-.827 0-1.38.552-1.38 1.38 0 .829.553 1.381 1.38 1.381h2.759v13.804H13.793zm59.31 0h-40V35.93c0-.828-.551-1.38-1.379-1.38h-19.31c-.828 0-1.38.552-1.38 1.38v37.272H6.897V31.788h66.206v41.413zm4.138-56.874c0 2.04-1.25 3.661-2.936 4.233a.997.997 0 00-.236.047c-.203.101-.48.128-.723.135-1.06-.028-2.216-.316-3.001-1.102-.828-.69-1.38-1.933-1.38-3.037V2.799h5.656c1.517 0 2.62 1.242 2.62 2.622v10.906z" fill="#8C001A"/><path fill-rule="evenodd" clip-rule="evenodd" d="M38.62 67.68h30.347c.827 0 1.379-.553 1.379-1.38V35.93c0-.829-.552-1.381-1.38-1.381H38.622c-.828 0-1.38.552-1.38 1.38V66.3c0 .828.552 1.38 1.38 1.38zm19.311-6.903c.828 0 1.38-.552 1.38-1.38 0-.828-.552-1.38-1.38-1.38h-8.276c-.827 0-1.38.551-1.38 1.38 0 .828.553 1.38 1.38 1.38h2.759v4.142h-5.556c-.272-4.916-1.988-9.022-4.513-11.044 3.254-2.736 5.648-8.916 5.907-16.565h11.081c.246 7.649 2.524 13.83 5.908 16.565-2.525 2.022-4.24 6.127-4.512 11.044h-5.557v-4.142h2.76zm9.655 4.142h-4.138c.414-4.694 2.207-8.145 4.138-9.25v9.25zm0-27.61v14.772c-2.758-1.519-5.241-7.04-5.517-14.771h5.517zM40 37.31h5.517c-.276 7.73-2.896 13.253-5.517 14.772V37.31zm0 18.36c2.069 1.105 3.862 4.556 4.138 9.25H40v-9.25zm-12.414-5.936V41.45c0-.828-.551-1.38-1.38-1.38h-8.275c-.828 0-1.38.552-1.38 1.38v8.283c0 .828.552 1.38 1.38 1.38h8.276c.828 0 1.38-.552 1.38-1.38zm-2.758-1.38H19.31v-5.522h5.518v5.521z" fill="#8C001A"/></svg>