<svg width="80" height="80" fill="none" xmlns="http://www.w3.org/2000/svg"><g clip-path="url(#clip0)" fill-rule="evenodd" clip-rule="evenodd" fill="#8C001A"><path d="M28.028 38.636c-3.028-3.42-7.065-5.303-11.37-5.303-4.306 0-8.343 1.883-11.37 5.303-6.15 6.948-6.15 18.25 0 25.199l11.37 12.844 11.369-12.844c6.15-6.948 6.15-18.251.001-25.199zm-1.997 23.43l-9.372 10.589-9.374-10.588c-5.288-5.972-5.288-15.691 0-21.663C9.8 37.564 13.128 36 16.657 36c3.53 0 6.86 1.564 9.372 4.404 5.288 5.972 5.288 15.69.002 21.663zm38.965-29.39l8.619-9.715c4.637-5.226 4.637-13.728 0-18.954C71.32 1.423 68.26 0 64.995 0c-3.264 0-6.326 1.423-8.62 4.007-4.636 5.226-4.636 13.728 0 18.954l8.62 9.715zM58.37 5.777c1.78-2.006 4.132-3.11 6.624-3.11 2.493 0 4.845 1.104 6.625 3.11 3.77 4.25 3.77 11.164 0 15.414l-6.624 7.468-6.625-7.468c-3.771-4.25-3.771-11.164 0-15.414zM70.139 72.69a1.333 1.333 0 00-1.594 1.007 4.627 4.627 0 01-.884 1.856 1.332 1.332 0 102.096 1.648 7.346 7.346 0 001.39-2.917 1.334 1.334 0 00-1.008-1.595zM42.66 41.333a4.69 4.69 0 01-1.67-.306 1.338 1.338 0 00-1.72.77 1.336 1.336 0 00.77 1.722c.835.317 1.713.48 2.617.481h.476a1.332 1.332 0 100-2.667h-.473zm-3.165-8.432c.241 0 .484-.065.704-.201a4.603 4.603 0 011.938-.67 1.335 1.335 0 001.18-1.473 1.335 1.335 0 00-1.472-1.18 7.23 7.23 0 00-3.058 1.059 1.333 1.333 0 00.708 2.465zm-15.41 44.432H21.42a1.332 1.332 0 100 2.667h2.666a1.332 1.332 0 100-2.667zm23.905-24c-.114 0-.227.003-.34.008a1.333 1.333 0 00.053 2.666c.018 0 .037 0 .056-.002L50.37 56a1.332 1.332 0 100-2.667h-2.38zM47.324 32h2.667a1.332 1.332 0 100-2.667h-2.667a1.332 1.332 0 100 2.667zm16.38 21.333c-.737 0-1.333.596-1.333 1.334 0 .737.596 1.333 1.333 1.333h2.667a1.332 1.332 0 100-2.667h-2.667zm4.764-10.666c0-.738-.596-1.334-1.333-1.334h-2.667c-.737 0-1.333.596-1.333 1.334 0 .737.596 1.333 1.333 1.333h2.667c.736 0 1.333-.596 1.333-1.333zM55.704 56h2.667a1.332 1.332 0 100-2.667h-2.667a1.332 1.332 0 100 2.667zm2.286-24a1.332 1.332 0 100-2.667h-2.666a1.332 1.332 0 100 2.667h2.667zm-9.522 9.333c-.737 0-1.333.596-1.333 1.334 0 .737.596 1.333 1.333 1.333h2.667a1.332 1.332 0 100-2.667h-2.667zm12 1.334c0-.738-.596-1.334-1.333-1.334h-2.667c-.737 0-1.333.596-1.333 1.334 0 .737.596 1.333 1.333 1.333h2.667c.736 0 1.333-.596 1.333-1.333zm18.767 4.843a1.333 1.333 0 10-2.634.422c.038.237.06.479.056.736 0 .448-.064.89-.189 1.317a1.333 1.333 0 102.56.75 7.352 7.352 0 00.296-2.058 7.092 7.092 0 00-.09-1.168zm-23.15 29.823H53.42a1.332 1.332 0 100 2.667h2.666a1.332 1.332 0 100-2.667zm-8 0H45.42a1.332 1.332 0 100 2.667h2.666a1.332 1.332 0 100-2.667zm14.668-10.666c0-.738-.596-1.334-1.333-1.334h-2.667a1.332 1.332 0 100 2.667h2.667c.736 0 1.333-.596 1.333-1.333zm-8 0c0-.738-.596-1.334-1.333-1.334h-2.667a1.332 1.332 0 100 2.667h2.667c.736 0 1.333-.596 1.333-1.333zm9.237 10.666h-2.573c-.737 0-1.333.596-1.333 1.334 0 .737.596 1.333 1.333 1.333l2.628-.001.039-1.334V80c.737 0 1.287-.596 1.287-1.334 0-.736-.643-1.332-1.38-1.332zm4.718-7.041a1.333 1.333 0 001.047-2.157 7.393 7.393 0 00-2.506-2.038 1.334 1.334 0 00-1.188 2.388c.618.306 1.17.755 1.596 1.299.264.333.655.508 1.05.508zm5.085-17.32a4.63 4.63 0 01-1.802.361h-.287c-.737 0-1.333.596-1.333 1.334 0 .737.596 1.333 1.333 1.333h.287a7.28 7.28 0 002.833-.57 1.332 1.332 0 10-1.03-2.458zM37.372 39.807a1.335 1.335 0 00.85-1.684 4.66 4.66 0 01-.194-2.05 1.332 1.332 0 00-1.156-1.489 1.327 1.327 0 00-1.49 1.156 7.337 7.337 0 00.305 3.216 1.335 1.335 0 001.685.85zm-5.287 37.526H29.42a1.332 1.332 0 100 2.667h2.666a1.332 1.332 0 100-2.667zm13.411-9.874a1.333 1.333 0 00.556-2.546 4.716 4.716 0 01-1.637-1.248 1.332 1.332 0 10-2.042 1.716 7.384 7.384 0 002.57 1.956c.18.082.368.122.553.122zm30.165-25.142a7.25 7.25 0 00-3.089-.962 1.333 1.333 0 10-.208 2.659 4.59 4.59 0 011.96.61 1.334 1.334 0 101.337-2.307zM40.085 77.333H37.42a1.332 1.332 0 100 2.667h2.666a1.332 1.332 0 100-2.667zm3.322-17.548a4.637 4.637 0 01.825-1.884 1.334 1.334 0 00-2.148-1.58 7.307 7.307 0 00-1.297 2.963 1.335 1.335 0 001.31 1.585 1.342 1.342 0 001.31-1.084z"/><path d="M65.324 20c4.043 0 7.333-3.29 7.333-7.333s-3.29-7.334-7.333-7.334-7.333 3.291-7.333 7.334c0 4.042 3.29 7.333 7.333 7.333zm0-12a4.672 4.672 0 014.667 4.667 4.672 4.672 0 01-4.667 4.666 4.672 4.672 0 01-4.667-4.666A4.673 4.673 0 0165.324 8zM16.657 41.333c-4.412 0-8 3.588-8 8s3.588 8 8 8 8-3.588 8-8-3.588-8-8-8zm0 13.334a5.339 5.339 0 01-5.333-5.334A5.339 5.339 0 0116.657 44a5.339 5.339 0 015.334 5.333 5.339 5.339 0 01-5.334 5.334z"/></g><defs><clipPath id="clip0"><path fill="#fff" d="M0 0h80v80H0z"/></clipPath></defs></svg>