<svg width="94" height="80" fill="none" xmlns="http://www.w3.org/2000/svg"><path fill-rule="evenodd" clip-rule="evenodd" d="M86.763 26.39c-4.524-4.515-10.85-7.73-17.817-9.053a1.55 1.55 0 00-1.81 1.242 1.558 1.558 0 001.235 1.82C81.636 22.92 90.9 32.194 90.9 42.95c0 8.86-6.27 16.823-16.364 20.781a1.556 1.556 0 00-.969 1.215c-.612 4 .224 8.071 2.267 11.462-4.46-1.198-8.073-4.64-9.478-9.305a1.55 1.55 0 00-1.617-1.1 37.83 37.83 0 01-3.278.143c-9.64 0-18.688-3.74-24.204-10.005a1.543 1.543 0 00-2.187-.134 1.565 1.565 0 00-.133 2.2c6.095 6.923 16.01 11.056 26.524 11.056.772 0 1.554-.022 2.337-.068a17.088 17.088 0 005.53 7.398 16.384 16.384 0 0010.023 3.394 1.55 1.55 0 001.43-.959c.24-.58.11-1.25-.33-1.696-2.856-2.901-4.291-6.977-3.925-11.048 5.003-2.113 9.246-5.244 12.311-9.093C92.215 52.949 94 48.025 94 42.95c0-6.02-2.57-11.9-7.237-16.56z" fill="#8C001A"/><path fill-rule="evenodd" clip-rule="evenodd" d="M65.077 26.326c0-7.097-3.432-13.746-9.663-18.724C49.288 2.71 41.164.014 32.538.014c-8.626 0-16.75 2.695-22.876 7.588C3.432 12.58 0 19.23 0 26.326c0 5.076 1.785 10 5.162 14.24 3.065 3.85 7.308 6.98 12.312 9.093.365 4.072-1.07 8.147-3.927 11.048a1.565 1.565 0 00-.33 1.697c.242.58.806.959 1.43.959 3.65 0 7.115-1.174 10.023-3.394a17.087 17.087 0 005.531-7.398c.783.045 1.565.068 2.337.068 8.626 0 16.75-2.695 22.876-7.588 6.231-4.978 9.663-11.627 9.663-18.725zM29.26 49.378a1.549 1.549 0 00-1.617 1.1c-1.405 4.665-5.017 8.107-9.477 9.305a17.224 17.224 0 002.266-11.462 1.557 1.557 0 00-.969-1.215C9.37 43.148 3.1 35.186 3.1 26.326c0-12.79 13.206-23.195 29.44-23.195 16.233 0 29.439 10.405 29.439 23.195 0 12.79-13.206 23.196-29.44 23.196-1.08 0-2.184-.048-3.278-.144z" fill="#8C001A"/></svg>